<?xml version="1.0" standalone="no"?>
<!DOCTYPE svg PUBLIC "-//W3C//DTD SVG 20010904//EN"
 "http://www.w3.org/TR/2001/REC-SVG-20010904/DTD/svg10.dtd">
<svg version="1.0" xmlns="http://www.w3.org/2000/svg"
 width="200.000000pt" height="200.000000pt" viewBox="0 0 200.000000 200.000000"
 preserveAspectRatio="xMidYMid meet">
<metadata>
Created by potrace 1.16, written by Peter Selinger 2001-2019
</metadata>
<g transform="translate(0.000000,200.000000) scale(0.100000,-0.100000)"
fill="#000000" stroke="none">
<path d="M463 1205 c-31 -31 -35 -40 -30 -74 7 -54 -7 -72 -26 -34 -9 16 -22
35 -30 41 -12 10 -15 2 -21 -49 -11 -107 -9 -118 28 -155 46 -46 63 -45 58 4
l-5 37 22 -19 c21 -19 21 -19 21 7 0 15 5 27 10 27 6 0 10 -9 10 -20 0 -14 5
-18 17 -13 14 5 15 1 10 -25 -5 -24 -3 -32 7 -32 17 0 75 56 77 73 1 7 5 -1 9
-18 l8 -30 1 33 c1 29 4 32 34 33 l32 1 -30 7 c-21 4 -31 13 -33 29 -3 19 1
22 27 22 17 0 31 5 31 11 0 7 -15 10 -39 7 -38 -3 -40 -2 -50 33 -6 20 -11 46
-11 58 0 23 -22 28 -38 9 -5 -7 -13 -28 -17 -45 -15 -72 -42 -15 -32 68 3 27
4 49 1 49 -4 0 -22 -16 -41 -35z m36 -124 c17 -31 34 -22 50 30 l15 44 17 -55
c24 -74 23 -99 -3 -140 l-23 -35 -3 33 c-2 22 -8 32 -18 30 -7 -2 -25 11 -39
27 l-24 30 -1 -33 c0 -29 -3 -32 -20 -27 -17 5 -21 1 -26 -25 -8 -38 -21 -35
-46 11 -14 25 -17 45 -12 74 9 55 21 65 35 27 6 -18 15 -32 20 -32 16 0 29 39
29 87 0 27 6 55 13 62 10 10 13 2 18 -37 4 -26 12 -58 18 -71z"/>
</g>
</svg>
